# xmcd
#
# Track frame offsets:
#	150
#	15707
#	32063
#	46632
#	63868
#	76525
#	89751
#	109233
#	125264
#	144360
#	158542
#	177306
#
# Disc length: 2593 seconds
#
# Revision: 0
# Processed by: cddbd v1.5.2PL0 Copyright (c) Steve Scherf et al.
# Submitted via: EasyCDDAExtractor 15.3.0.1
#
DISCID=890a1f0c
DTITLE=SARAH THERON - STORM IN 'N D-CUP
DYEAR=2011
DGENRE=
TTITLE0=BIETJIE MEER VAN JOU
TTITLE1=SKIL DIE TAMATIES
TTITLE2=STORM IN 'N D-CUP
TTITLE3=CRYING
TTITLE4=YOU THINK YOU'RE THE MAN
TTITLE5=EK WONDER
TTITLE6=BRIDGE OVER TROUBLED WATER
TTITLE7=DOVERSTOFIE
TTITLE8=PURPLE RAIN
TTITLE9=BAKKE VOL LIEFDE
TTITLE10=DELTA DAWN
TTITLE11=GLORYLAND
EXTD=
EXTT0=
EXTT1=
EXTT2=
EXTT3=
EXTT4=
EXTT5=
EXTT6=
EXTT7=
EXTT8=
EXTT9=
EXTT10=
EXTT11=
PLAYORDER=
